<!DOCTYPE svg PUBLIC "-//W3C//DTD SVG 20010904//EN" "http://www.w3.org/TR/2001/REC-SVG-20010904/DTD/svg10.dtd">
<svg version="1.0" xmlns="http://www.w3.org/2000/svg" width="752px" height="748px" viewBox="0 0 7520 7480" preserveAspectRatio="xMidYMid meet">
<g id="layer101" fill="#000000" stroke="none">
 <path d="M3391 7449 c-217 -16 -387 -52 -737 -152 -257 -75 -433 -143 -659 -257 -223 -112 -348 -188 -530 -325 -621 -465 -1066 -1111 -1281 -1860 -114 -395 -166 -917 -134 -1350 59 -798 379 -1562 911 -2180 115 -133 348 -359 484 -468 129 -104 377 -270 523 -351 662 -368 1454 -526 2207 -440 1033 117 1960 655 2577 1494 303 412 564 1005 667 1518 53 262 65 382 65 677 1 276 -7 385 -45 605 -104 603 -369 1170 -774 1657 -49 59 -164 182 -255 273 -474 474 -1022 794 -1650 962 -63 16 -137 36 -165 44 -521 143 -826 182 -1204 153z m874 -149 c240 -21 488 -76 704 -157 536 -200 1103 -601 1438 -1018 457 -569 720 -1215 799 -1965 20 -194 14 -661 -10 -840 -62 -449 -186 -846 -384 -1235 -89 -175 -168 -294 -300 -460 -604 -755 -1505 -1231 -2472 -1306 -185 -14 -511 -7 -690 16 -976 123 -1869 654 -2411 1435 -644 927 -808 2098 -445 3175 212 632 639 1222 1197 1657 493 384 1128 625 1784 678 382 31 593 36 790 20z"/>
 <path d="M3771 5921 c-6 -39 -11 -89 -11 -113 0 -24 -5 -61 -10 -83 -20 -82 -39 -234 -45 -355 -10 -210 -27 -769 -32 -1082 l-5 -298 -146 0 c-181 1 -869 17 -1127 27 -316 13 -625 10 -663 -6 -97 -41 -100 -180 -5 -227 34 -17 62 -19 243 -19 113 0 354 6 535 12 182 7 521 15 754 19 l424 7 -7 -299 c-4 -164 -11 -432 -16 -594 -6 -162 -10 -480 -10 -706 l0 -411 23 -34 c15 -22 38 -39 65 -49 57 -20 116 0 150 50 l24 35 -6 545 c-3 300 -9 750 -12 1001 l-6 455 548 12 c302 7 630 17 729 22 99 5 276 14 392 20 222 11 346 27 322 40 -27 15 -206 41 -344 50 -417 27 -1081 50 -1472 50 l-173 0 6 203 c4 118 2 260 -5 342 -6 77 -11 199 -12 270 -4 433 -60 1185 -89 1185 -4 0 -12 -31 -19 -69z"/>
 </g>
</svg>